<svg width="11" height="16" viewBox="0 0 11 16" fill="none" xmlns="http://www.w3.org/2000/svg">
<path d="M5.92783 1.14565V1.64564L6.42782 1.64565C7.09157 1.64566 7.73899 1.85142 8.28096 2.23462C8.82292 2.61782 9.23277 3.15959 9.45407 3.78536C9.4727 3.83821 9.48076 3.89421 9.47777 3.95017C9.47479 4.00621 9.46079 4.06111 9.43659 4.11174C9.41239 4.16237 9.37845 4.20773 9.33671 4.24525C9.29497 4.28276 9.24625 4.31169 9.19334 4.33037C9.14043 4.34906 9.08435 4.35714 9.02831 4.35415C8.97228 4.35117 8.91738 4.33717 8.86675 4.31297C8.76449 4.26408 8.68585 4.17659 8.64811 4.06972L8.64802 4.06946C8.48563 3.61041 8.18491 3.21299 7.78727 2.93194C7.38963 2.6509 6.91464 2.50005 6.4277 2.50017L5.92783 2.50029V3.00017V6.70922V7.20922H6.42783C7.27892 7.20922 8.09515 7.54731 8.69697 8.14913C9.29878 8.75094 9.63688 9.56717 9.63688 10.4183C9.63688 11.2694 9.29878 12.0856 8.69697 12.6874C8.09515 13.2892 7.27892 13.6273 6.42783 13.6273H5.92783V14.1273V14.5546H5.07331V14.1273V13.6273L4.57331 13.6273C3.90956 13.6273 3.26214 13.4215 2.72018 13.0383C2.17822 12.6551 1.76837 12.1134 1.54706 11.4876L1.54725 11.4875L1.5422 11.4744C1.52165 11.4211 1.51199 11.3642 1.51381 11.3071C1.51562 11.25 1.52887 11.1939 1.55277 11.142C1.57667 11.0901 1.61073 11.0435 1.65294 11.005C1.69515 10.9665 1.74465 10.9369 1.79852 10.9179C1.85238 10.8988 1.90952 10.8908 1.96655 10.8942C2.02357 10.8977 2.07933 10.9125 2.13052 10.9379C2.18172 10.9632 2.2273 10.9986 2.26458 11.0419C2.30187 11.0852 2.33009 11.1355 2.34759 11.1899L2.34986 11.1969L2.35234 11.2039C2.67683 12.1186 3.54837 12.7728 4.57331 12.7728H5.07331V12.2728V8.56374V8.06374H4.57331C3.72221 8.06374 2.90598 7.72565 2.30417 7.12383C1.70235 6.52202 1.36426 5.70579 1.36426 4.85469C1.36426 4.0036 1.70235 3.18737 2.30417 2.58555C2.90598 1.98374 3.72221 1.64565 4.57331 1.64565H5.07331V1.14565V0.718384H5.92783V1.14565ZM5.07331 3.00017V2.50017H4.57331C3.94885 2.50017 3.34996 2.74824 2.90841 3.18979C2.46685 3.63135 2.21878 4.23023 2.21878 4.85469C2.21878 5.47915 2.46685 6.07803 2.90841 6.51959C3.34996 6.96115 3.94885 7.20922 4.57331 7.20922H5.07331V6.70922V3.00017ZM5.92783 12.2728V12.7728H6.42783C7.05229 12.7728 7.65117 12.5247 8.09273 12.0832C8.53429 11.6416 8.78235 11.0427 8.78235 10.4183C8.78235 9.79381 8.53429 9.19492 8.09273 8.75337C7.65117 8.31181 7.05229 8.06374 6.42783 8.06374H5.92783V8.56374V12.2728Z" fill="#FAFAFA" stroke="#FAFAFA"/>
</svg>
